<svg width="14" height="14" viewBox="0 0 14 14" fill="none" xmlns="http://www.w3.org/2000/svg">
<path d="M6.99934 13.6667C3.70379 13.6232 1.04278 10.9622 0.999344 7.66667C1.04278 4.37112 3.70379 1.7101 6.99934 1.66667C10.2949 1.7101 12.9559 4.37112 12.9993 7.66667C12.9559 10.9622 10.2949 13.6232 6.99934 13.6667ZM6.99934 3C4.43612 3.03374 2.36642 5.10344 2.33268 7.66667C2.36642 10.2299 4.43612 12.2996 6.99934 12.3333C9.56256 12.2996 11.6323 10.2299 11.666 7.66667C11.6323 5.10344 9.56256 3.03374 6.99934 3ZM10.3327 8.33333H6.33268V4.33333H7.66601V7H10.3327V8.33333ZM12.5273 3.472L10.5213 1.472L11.4607 0.527332L13.4673 2.52733L12.5273 3.47133V3.472ZM1.47068 3.472L0.527344 2.52733L2.52134 0.527332L3.46468 1.472L1.47201 3.472H1.47068Z" fill="#96BB7C"/>
</svg>
