<svg width="20" height="20" viewBox="0 0 20 20" fill="none" xmlns="http://www.w3.org/2000/svg">
<path d="M17.2222 4.44446H12.2222V18.3333H18.3333V5.55557C18.3333 5.26088 18.2162 4.97827 18.0078 4.7699C17.7995 4.56152 17.5169 4.44446 17.2222 4.44446ZM14.4444 13.8889H13.3333V12.7778H14.4444V13.8889ZM14.4444 11.1111H13.3333V10H14.4444V11.1111ZM14.4444 8.33335H13.3333V7.22224H14.4444V8.33335ZM16.6666 13.8889H15.5555V12.7778H16.6666V13.8889ZM16.6666 11.1111H15.5555V10H16.6666V11.1111ZM16.6666 8.33335H15.5555V7.22224H16.6666V8.33335Z" fill="#696871"/>
<path d="M9.93328 1.66663H3.39995C3.08758 1.66663 2.78801 1.79071 2.56713 2.01159C2.34625 2.23247 2.22217 2.53204 2.22217 2.8444V18.3333H4.99995V16.6666H8.33328V18.3333H11.1111V2.8444C11.1111 2.53204 10.987 2.23247 10.7661 2.01159C10.5452 1.79071 10.2456 1.66663 9.93328 1.66663ZM4.99995 13.8888H3.88883V12.7777H4.99995V13.8888ZM4.99995 11.1111H3.88883V9.99996H4.99995V11.1111ZM4.99995 8.33329H3.88883V7.22218H4.99995V8.33329ZM4.99995 5.55552H3.88883V4.4444H4.99995V5.55552ZM7.22217 13.8888H6.11106V12.7777H7.22217V13.8888ZM7.22217 11.1111H6.11106V9.99996H7.22217V11.1111ZM7.22217 8.33329H6.11106V7.22218H7.22217V8.33329ZM7.22217 5.55552H6.11106V4.4444H7.22217V5.55552ZM9.44439 13.8888H8.33328V12.7777H9.44439V13.8888ZM9.44439 11.1111H8.33328V9.99996H9.44439V11.1111ZM9.44439 8.33329H8.33328V7.22218H9.44439V8.33329ZM9.44439 5.55552H8.33328V4.4444H9.44439V5.55552Z" fill="#696871"/>
</svg>
