<svg width="142" height="44" viewBox="0 0 142 44" fill="none" xmlns="http://www.w3.org/2000/svg">
<path d="M21.204 27V17.214H23.388V25.054H27.56V27H21.204ZM35.675 25.908C34.8257 26.7107 33.827 27.112 32.679 27.112C31.5404 27.112 30.5977 26.762 29.851 26.062C29.1044 25.3527 28.731 24.4053 28.731 23.22C28.731 22.0347 29.109 21.092 29.865 20.392C30.6304 19.692 31.531 19.342 32.567 19.342C33.603 19.342 34.4804 19.6547 35.199 20.28C35.927 20.9053 36.291 21.764 36.291 22.856V23.976H30.803C30.8684 24.3867 31.083 24.7227 31.447 24.984C31.811 25.2453 32.2217 25.376 32.679 25.376C33.4164 25.376 34.023 25.1287 34.499 24.634L35.675 25.908ZM34.163 22.478C34.1164 22.03 33.9484 21.6847 33.659 21.442C33.3697 21.1993 33.015 21.078 32.595 21.078C32.1844 21.078 31.8064 21.204 31.461 21.456C31.1157 21.708 30.915 22.0487 30.859 22.478H34.163ZM44.4033 27H42.4293V26.09C41.888 26.7713 41.216 27.112 40.4133 27.112C39.62 27.112 38.9527 26.8833 38.4113 26.426C37.87 25.9593 37.5993 25.3433 37.5993 24.578C37.5993 23.8033 37.8793 23.2247 38.4393 22.842C38.9993 22.4593 39.7647 22.268 40.7353 22.268H42.3033V22.226C42.3033 21.4233 41.8787 21.022 41.0293 21.022C40.6653 21.022 40.278 21.0967 39.8673 21.246C39.466 21.386 39.1253 21.5633 38.8453 21.778L37.9073 20.42C38.8967 19.7013 40.026 19.342 41.2953 19.342C42.21 19.342 42.9567 19.5707 43.5353 20.028C44.114 20.4853 44.4033 21.2087 44.4033 22.198V27ZM42.2893 24.13V23.766H40.9733C40.1333 23.766 39.7133 24.0273 39.7133 24.55C39.7133 24.8207 39.8113 25.0307 40.0073 25.18C40.2127 25.32 40.502 25.39 40.8753 25.39C41.2487 25.39 41.5753 25.278 41.8553 25.054C42.1447 24.8207 42.2893 24.5127 42.2893 24.13ZM50.4798 21.316C49.8545 21.316 49.3878 21.54 49.0798 21.988C48.7718 22.4267 48.6178 23.01 48.6178 23.738V27H46.5178V19.468H48.6178V20.462C48.8885 20.154 49.2245 19.8927 49.6258 19.678C50.0365 19.4633 50.4518 19.3513 50.8718 19.342L50.8858 21.316H50.4798ZM54.5737 22.8V27H52.4737V19.468H54.5737V20.308C55.2084 19.664 55.9224 19.342 56.7157 19.342C57.509 19.342 58.1717 19.622 58.7037 20.182C59.245 20.742 59.5157 21.4887 59.5157 22.422V27H57.4157V22.744C57.4157 21.5867 56.991 21.008 56.1417 21.008C55.7217 21.008 55.353 21.162 55.0357 21.47C54.7277 21.7687 54.5737 22.212 54.5737 22.8ZM74.4805 20.84L71.8345 26.188H70.5325L67.9005 20.84V27H65.7165V17.214H68.6705L71.1905 22.59L73.7245 17.214H76.6645V27H74.4805V20.84ZM80.7439 23.234C80.7439 23.85 80.9166 24.354 81.2619 24.746C81.6166 25.1287 82.0646 25.32 82.6059 25.32C83.1566 25.32 83.6046 25.1287 83.9499 24.746C84.3046 24.354 84.4819 23.85 84.4819 23.234C84.4819 22.618 84.3046 22.114 83.9499 21.722C83.6046 21.33 83.1566 21.134 82.6059 21.134C82.0646 21.134 81.6166 21.33 81.2619 21.722C80.9166 22.114 80.7439 22.618 80.7439 23.234ZM86.5959 23.234C86.5959 24.326 86.2179 25.2453 85.4619 25.992C84.7059 26.7387 83.7539 27.112 82.6059 27.112C81.4673 27.112 80.5199 26.7387 79.7639 25.992C79.0079 25.2453 78.6299 24.326 78.6299 23.234C78.6299 22.142 79.0079 21.2227 79.7639 20.476C80.5199 19.72 81.4673 19.342 82.6059 19.342C83.7539 19.342 84.7059 19.72 85.4619 20.476C86.2179 21.2227 86.5959 22.142 86.5959 23.234ZM92.3177 21.316C91.6924 21.316 91.2257 21.54 90.9177 21.988C90.6097 22.4267 90.4557 23.01 90.4557 23.738V27H88.3557V19.468H90.4557V20.462C90.7264 20.154 91.0624 19.8927 91.4637 19.678C91.8744 19.4633 92.2897 19.3513 92.7097 19.342L92.7237 21.316H92.3177ZM100.836 25.908C99.9862 26.7107 98.9876 27.112 97.8396 27.112C96.7009 27.112 95.7582 26.762 95.0116 26.062C94.2649 25.3527 93.8916 24.4053 93.8916 23.22C93.8916 22.0347 94.2696 21.092 95.0256 20.392C95.7909 19.692 96.6916 19.342 97.7276 19.342C98.7636 19.342 99.6409 19.6547 100.36 20.28C101.088 20.9053 101.452 21.764 101.452 22.856V23.976H95.9636C96.0289 24.3867 96.2436 24.7227 96.6076 24.984C96.9716 25.2453 97.3822 25.376 97.8396 25.376C98.5769 25.376 99.1836 25.1287 99.6596 24.634L100.836 25.908ZM99.3236 22.478C99.2769 22.03 99.1089 21.6847 98.8196 21.442C98.5302 21.1993 98.1756 21.078 97.7556 21.078C97.3449 21.078 96.9669 21.204 96.6216 21.456C96.2762 21.708 96.0756 22.0487 96.0196 22.478H99.3236Z" fill="#96BB7C"/>
<g clip-path="url(#clip0_13369_38178)">
<path d="M112 27.7143L117.714 22L112 16.2857L113.143 14L121.143 22L113.143 30L112 27.7143Z" fill="#96BB7C"/>
</g>
<path d="M0.5 22C0.5 10.1259 10.1259 0.5 22 0.5H119.143C131.017 0.5 140.643 10.1259 140.643 22C140.643 33.8741 131.017 43.5 119.143 43.5H22C10.1259 43.5 0.5 33.8741 0.5 22Z" stroke="#96BB7C"/>
<defs>
<clipPath id="clip0_13369_38178">
<rect width="9.14286" height="16" fill="white" transform="translate(112 14)"/>
</clipPath>
</defs>
</svg>
