<svg width="17" height="18" viewBox="0 0 17 18" fill="none" xmlns="http://www.w3.org/2000/svg">
<path fill-rule="evenodd" clip-rule="evenodd" d="M12.1763 11.4637L16.7491 16.0366C16.9098 16.1974 17.0001 16.4155 17 16.6429C16.9999 16.8703 16.9095 17.0884 16.7487 17.2491C16.5878 17.4098 16.3697 17.5001 16.1424 17.5C15.915 17.4999 15.6969 17.4095 15.5362 17.2487L10.9634 12.6758C9.59644 13.7346 7.87745 14.2328 6.15615 14.0692C4.43486 13.9055 2.84055 13.0923 1.69756 11.7949C0.554579 10.4974 -0.0512229 8.81329 0.00339672 7.08505C0.0580164 5.35682 0.768955 3.71429 1.99158 2.49163C3.21421 1.26897 4.85669 0.558018 6.58489 0.503397C8.31309 0.448776 9.99718 1.05459 11.2946 2.19761C12.592 3.34062 13.4052 4.93497 13.5688 6.65631C13.7325 8.37765 13.2342 10.0967 12.1755 11.4637H12.1763ZM6.80032 12.3995C8.15286 12.3995 9.45 11.8622 10.4064 10.9058C11.3628 9.94939 11.9001 8.65221 11.9001 7.29964C11.9001 5.94706 11.3628 4.64988 10.4064 3.69347C9.45 2.73705 8.15286 2.19975 6.80032 2.19975C5.44777 2.19975 4.15063 2.73705 3.19424 3.69347C2.23785 4.64988 1.70055 5.94706 1.70055 7.29964C1.70055 8.65221 2.23785 9.94939 3.19424 10.9058C4.15063 11.8622 5.44777 12.3995 6.80032 12.3995Z" fill="#96BB7C"/>
</svg>
