<svg width="132" height="23" viewBox="0 0 132 23" fill="none" xmlns="http://www.w3.org/2000/svg">
<g clip-path="url(#clip0_13369_38319)">
<path d="M21.0966 8.41927C21.039 8.24946 20.9329 8.10025 20.7914 7.99006C20.6499 7.87987 20.4792 7.81353 20.3005 7.79922L15.0713 7.38371L12.8085 2.3747C12.7364 2.21337 12.6192 2.07634 12.471 1.98016C12.3228 1.88397 12.1499 1.83274 11.9732 1.83264C11.7965 1.83254 11.6236 1.88359 11.4752 1.97961C11.3269 2.07563 11.2095 2.21253 11.1373 2.37378L8.87449 7.38371L3.64533 7.79922C3.46964 7.81314 3.30168 7.87738 3.16154 7.98425C3.02141 8.09113 2.91503 8.23612 2.85513 8.40187C2.79524 8.56762 2.78436 8.74712 2.82381 8.91889C2.86326 9.09066 2.95136 9.24743 3.07757 9.37044L6.94187 13.1375L5.57519 19.0555C5.5337 19.2347 5.547 19.4221 5.61337 19.5936C5.67974 19.7651 5.79612 19.9127 5.94741 20.0172C6.0987 20.1217 6.2779 20.1783 6.46178 20.1797C6.64565 20.1811 6.8257 20.1272 6.97856 20.025L11.9729 16.6955L16.9672 20.025C17.1235 20.1288 17.3077 20.1822 17.4952 20.1781C17.6827 20.1739 17.8645 20.1125 18.016 20.002C18.1675 19.8916 18.2816 19.7373 18.3429 19.5601C18.4041 19.3828 18.4097 19.1911 18.3587 19.0106L16.6811 13.1403L20.8416 9.39612C21.1141 9.15031 21.214 8.7669 21.0966 8.41927Z" fill="#F3CD03"/>
<path d="M48.1115 8.41927C48.0539 8.24946 47.9478 8.10025 47.8063 7.99006C47.6648 7.87987 47.4941 7.81353 47.3154 7.79922L42.0862 7.38371L39.8234 2.3747C39.7513 2.21337 39.6341 2.07634 39.4859 1.98016C39.3377 1.88397 39.1648 1.83274 38.9881 1.83264C38.8114 1.83254 38.6385 1.88359 38.4901 1.97961C38.3418 2.07563 38.2244 2.21253 38.1522 2.37378L35.8894 7.38371L30.6602 7.79922C30.4845 7.81314 30.3166 7.87738 30.1764 7.98425C30.0363 8.09113 29.9299 8.23612 29.87 8.40187C29.8101 8.56762 29.7993 8.74712 29.8387 8.91889C29.8781 9.09066 29.9662 9.24743 30.0925 9.37044L33.9568 13.1375L32.5901 19.0555C32.5486 19.2347 32.5619 19.4221 32.6283 19.5936C32.6946 19.7651 32.811 19.9127 32.9623 20.0172C33.1136 20.1217 33.2928 20.1783 33.4767 20.1797C33.6605 20.1811 33.8406 20.1272 33.9935 20.025L38.9878 16.6955L43.9821 20.025C44.1384 20.1288 44.3226 20.1822 44.5101 20.1781C44.6976 20.1739 44.8794 20.1125 45.0309 20.002C45.1824 19.8916 45.2965 19.7373 45.3578 19.5601C45.419 19.3828 45.4246 19.1911 45.3736 19.0106L43.696 13.1403L47.8565 9.39612C48.129 9.15031 48.2289 8.7669 48.1115 8.41927Z" fill="#F3CD03"/>
<path d="M75.1228 8.41927C75.0651 8.24946 74.959 8.10025 74.8175 7.99006C74.676 7.87987 74.5054 7.81353 74.3266 7.79922L69.0974 7.38371L66.8346 2.3747C66.7626 2.21337 66.6453 2.07634 66.4971 1.98016C66.3489 1.88397 66.176 1.83274 65.9993 1.83264C65.8226 1.83254 65.6497 1.88359 65.5014 1.97961C65.353 2.07563 65.2357 2.21253 65.1634 2.37378L62.9006 7.38371L57.6715 7.79922C57.4958 7.81314 57.3278 7.87738 57.1877 7.98425C57.0475 8.09113 56.9411 8.23612 56.8813 8.40187C56.8214 8.56762 56.8105 8.74712 56.8499 8.91889C56.8894 9.09066 56.9775 9.24743 57.1037 9.37044L60.968 13.1375L59.6013 19.0555C59.5598 19.2347 59.5731 19.4221 59.6395 19.5936C59.7059 19.7651 59.8222 19.9127 59.9735 20.0172C60.1248 20.1217 60.304 20.1783 60.4879 20.1797C60.6718 20.1811 60.8518 20.1272 61.0047 20.025L65.999 16.6955L70.9934 20.025C71.1496 20.1288 71.3339 20.1822 71.5214 20.1781C71.7088 20.1739 71.8906 20.1125 72.0421 20.002C72.1937 19.8916 72.3077 19.7373 72.369 19.5601C72.4303 19.3828 72.4358 19.1911 72.3848 19.0106L70.7072 13.1403L74.8678 9.39612C75.1402 9.15031 75.2402 8.7669 75.1228 8.41927Z" fill="#F3CD03"/>
<path d="M102.136 8.41927C102.079 8.24946 101.973 8.10025 101.831 7.99006C101.69 7.87987 101.519 7.81353 101.34 7.79922L96.1111 7.38371L93.8483 2.3747C93.7762 2.21337 93.659 2.07634 93.5108 1.98016C93.3626 1.88397 93.1897 1.83274 93.013 1.83264C92.8363 1.83254 92.6634 1.88359 92.515 1.97961C92.3667 2.07563 92.2493 2.21253 92.1771 2.37378L89.9143 7.38371L84.6851 7.79922C84.5094 7.81314 84.3415 7.87738 84.2013 7.98425C84.0612 8.09113 83.9548 8.23612 83.8949 8.40187C83.835 8.56762 83.8242 8.74712 83.8636 8.91889C83.9031 9.09066 83.9912 9.24743 84.1174 9.37044L87.9817 13.1375L86.615 19.0555C86.5735 19.2347 86.5868 19.4221 86.6532 19.5936C86.7195 19.7651 86.8359 19.9127 86.9872 20.0172C87.1385 20.1217 87.3177 20.1783 87.5016 20.1797C87.6854 20.1811 87.8655 20.1272 88.0184 20.025L93.0127 16.6955L98.007 20.025C98.1633 20.1288 98.3475 20.1822 98.535 20.1781C98.7225 20.1739 98.9043 20.1125 99.0558 20.002C99.2073 19.8916 99.3214 19.7373 99.3827 19.5601C99.4439 19.3828 99.4495 19.1911 99.3985 19.0106L97.7209 13.1403L101.881 9.39612C102.154 9.15031 102.254 8.7669 102.136 8.41927Z" fill="#F3CD03"/>
<path d="M114.997 13.1376L113.631 19.0556C113.588 19.2348 113.601 19.4226 113.667 19.5945C113.733 19.7663 113.85 19.9143 114.001 20.019C114.153 20.1237 114.332 20.1803 114.516 20.1814C114.7 20.1825 114.881 20.128 115.033 20.0251L120.028 16.6956L125.022 20.0251C125.178 20.1289 125.362 20.1823 125.55 20.1781C125.737 20.174 125.919 20.1126 126.071 20.0021C126.222 19.8916 126.336 19.7374 126.398 19.5602C126.459 19.3829 126.464 19.1911 126.413 19.0107L124.736 13.1404L128.896 9.39622C129.03 9.27623 129.125 9.11982 129.17 8.94632C129.215 8.77283 129.209 8.58986 129.151 8.42004C129.094 8.25023 128.988 8.10101 128.846 7.99085C128.705 7.88069 128.534 7.81442 128.355 7.80023L123.126 7.3838L120.863 2.37479C120.791 2.2135 120.674 2.07654 120.525 1.98043C120.377 1.88433 120.204 1.83319 120.028 1.83319C119.851 1.83319 119.678 1.88433 119.53 1.98043C119.381 2.07654 119.264 2.2135 119.192 2.37479L116.929 7.3838L111.7 7.79931C111.524 7.81323 111.356 7.87747 111.216 7.98434C111.076 8.09122 110.97 8.23621 110.91 8.40196C110.85 8.56771 110.839 8.74721 110.878 8.91898C110.918 9.09075 111.006 9.24752 111.132 9.37053L114.997 13.1376ZM117.614 9.16966C117.778 9.15676 117.935 9.10005 118.07 9.00549C118.204 8.91092 118.31 8.78197 118.377 8.63216L120.028 4.98065L121.678 8.63216C121.745 8.78197 121.851 8.91092 121.986 9.00549C122.12 9.10005 122.277 9.15676 122.441 9.16966L126.084 9.45859L123.084 12.1589C122.823 12.3937 122.72 12.7551 122.815 13.0927L123.964 17.1147L120.538 14.8299C120.387 14.729 120.21 14.6751 120.029 14.6751C119.848 14.6751 119.671 14.729 119.52 14.8299L115.939 17.2175L116.903 13.0477C116.938 12.8944 116.933 12.7345 116.889 12.5835C116.844 12.4325 116.762 12.2954 116.649 12.1855L113.863 9.46868L117.614 9.16966Z" fill="#F3CD03"/>
</g>
<defs>
<clipPath id="clip0_13369_38319">
<rect width="130.068" height="22.0136" fill="white" transform="translate(0.96582)"/>
</clipPath>
</defs>
</svg>
